<svg width="15" height="16" viewBox="0 0 15 16" fill="none" xmlns="http://www.w3.org/2000/svg">
<path d="M11.4469 6.16987C11.7417 5.9038 11.7417 5.47244 11.4469 5.20638C11.1522 4.94032 10.6743 4.94032 10.3796 5.20638L6.87639 8.36898L5.45628 7.08697C5.16156 6.82091 4.68372 6.82091 4.38901 7.08697C4.09429 7.35304 4.09429 7.78443 4.38901 8.05041L6.34279 9.81422C6.63751 10.0803 7.11527 10.0802 7.41 9.81422L11.4469 6.16987Z" fill="#FF5532"/>
<path fill-rule="evenodd" clip-rule="evenodd" d="M7.5 0C3.35786 0 0 3.3625 0 7.51035C0 11.6582 3.35786 15.0207 7.5 15.0207C11.6421 15.0207 15 11.6582 15 7.51035C15 3.3625 11.6421 0 7.5 0ZM1.125 7.51035C1.125 3.98468 3.97919 1.12655 7.5 1.12655C11.0208 1.12655 13.875 3.98468 13.875 7.51035C13.875 11.036 11.0208 13.8941 7.5 13.8941C3.97919 13.8941 1.125 11.036 1.125 7.51035Z" fill="#FF5532"/>
</svg>
